PathFileType	4	(X/Y/Z)	C:/Users/opensim2020/Desktop/walking_exp_matlab/subject02_walking04_straight_03.trc																																																																																																																												
DataRate	CameraRate	NumFrames	NumMarkers	Units	OrigDataRate	OrigDataStartFrame	OrigNumFrames																																																																																																																								
100	100	4	42	mm	100	2317	222																																																																																																																								
Frame#	Time	LFHD			RFHD			LBHD			RBHD			C7			T10			CLAV			STRN			RBAK			LSHO			LUPA			LELB			LFRM			LWRA			LWRB			LFIN			RSHO			RUPA			RELB			RFRM			RWRA			RWRB			RFIN			LASI			RASI			LPSI			RPSI			LTHI			LKNE			LTIB			LANK			LHEE			LTOE			RTHI			RKNE			RTIB			RANK			RHEE			RTOE			*39			*40			*41		
		X1	Y1	Z1	X2	Y2	Z2	X3	Y3	Z3	X4	Y4	Z4	X5	Y5	Z5	X6	Y6	Z6	X7	Y7	Z7	X8	Y8	Z8	X9	Y9	Z9	X10	Y10	Z10	X11	Y11	Z11	X12	Y12	Z12	X13	Y13	Z13	X14	Y14	Z14	X15	Y15	Z15	X16	Y16	Z16	X17	Y17	Z17	X18	Y18	Z18	X19	Y19	Z19	X20	Y20	Z20	X21	Y21	Z21	X22	Y22	Z22	X23	Y23	Z23	X24	Y24	Z24	X25	Y25	Z25	X26	Y26	Z26	X27	Y27	Z27	X28	Y28	Z28	X29	Y29	Z29	X30	Y30	Z30	X31	Y31	Z31	X32	Y32	Z32	X33	Y33	Z33	X34	Y34	Z34	X35	Y35	Z35	X36	Y36	Z36	X37	Y37	Z37	X38	Y38	Z38	X39	Y39	Z39	X40	Y40	Z40	X41	Y41	Z41	X42	Y42	Z42
																																																																																																																															
112	1.11	36.06596	1749.10767	-1056.40454	25.57054	1729.953	-913.51978	-82.14581	1657.47229	-1076.27576	-104.61786	1635.5448	-936.48096	-136.9314	1527.91687	-989.67657	-199.54779	1254.70483	-969.70807	1.22194	1455.45752	-1013.77576	47.65263	1283.25085	-1001.54401	-190.71736	1360.99902	-907.76617	-86.33221	1494.08374	-1174.91687	-144.90785	1302.25391	-1251.21936	-175.62296	1165.29968	-1261.79053	-192.61914	1034.25916	-1279.81702	-154.34212	899.94012	-1263.77124	-204.83653	911.86145	-1286.89783	-197.69548	845.57104	-1295.20886	-34.25835	1502.1062	-814.86664	-22.81771	1321.91821	-710.13239	23.65952	1182.26624	-682.50464	86.36398	1078.12842	-666.94086	162.82069	968.90179	-692.24701	126.39156	954.8208	-650.4234	180.97856	908.37366	-653.05682	29.36175	996.25043	-1122.54407	40.63987	977.08423	-864.99481	-177.72491	1031.04871	-1031.66235	-177.66531	1030.44678	-916.7514	34.09526	693.85999	-1194.28357	76.96188	500.26099	-1169.88232	56.71352	307.39124	-1165.86646	106.98345	87.58228	-1149.25	92.77893	58.51889	-1089.80627	256.03555	66.53951	-1196.73425	-51.53186	669.56036	-811.0556	-77.5456	460.60666	-855.50903	-141.23091	282.46072	-849.08984	-184.73808	93.17604	-890.15198	-226.60782	40.1809	-944.33447	-36.25403	36.19681	-879.54254	-81.34021	1799.76489	-976.3877	2845.75317	1033.83191	-3357.50073	NaN	NaN	NaN
113	1.12	44.78867	1748.00012	-1057.82922	34.32441	1729.18091	-914.80554	-73.20894	1656.00171	-1077.44592	-95.05396	1634.27161	-937.26843	-127.77116	1526.854	-990.66345	-190.80724	1253.74121	-971.18298	10.38606	1454.27246	-1014.65039	56.5542	1282.02136	-1002.05591	-181.75925	1360.04504	-908.93628	-77.04108	1492.87573	-1175.91614	-137.29315	1301.23792	-1251.46655	-169.34799	1164.54602	-1261.69592	-187.9268	1033.93347	-1279.8905	-151.34761	899.06915	-1263.77344	-201.81297	911.6571	-1286.57141	-195.68594	845.24829	-1294.85168	-25.32781	1501.15698	-816.01257	-12.81259	1321.37671	-710.86932	35.37901	1182.27637	-682.86707	99.66151	1078.99133	-667.92804	177.58327	971.00439	-693.38599	141.31335	956.22986	-651.62823	196.84125	910.72388	-654.42151	39.04156	995.10699	-1123.00098	48.65104	976.27271	-865.26093	-168.66827	1029.90625	-1033.11011	-169.63614	1029.30249	-918.33984	42.87712	692.29529	-1194.74329	87.91142	499.18723	-1170.12024	74.84949	305.85846	-1168.29736	133.59583	87.43801	-1152.86096	119.10414	57.59607	-1094.15002	284.35663	71.41108	-1197.25696	-45.96921	668.78546	-811.59576	-73.75674	459.90994	-856.20453	-139.17978	282.52609	-849.49286	-184.35423	93.50726	-890.39233	-226.45645	40.57144	-944.63	-36.22814	36.0999	-879.40326	-72.99924	1798.20825	-978.0105	2845.20508	1033.63599	-3360.28906	NaN	NaN	NaN
114	1.13	53.47791	1746.88464	-1059.34644	42.89562	1728.1405	-916.5874	-64.28563	1654.5105	-1078.68909	-86.65443	1633.14111	-939.08356	-118.64419	1525.69971	-991.87042	-182.12181	1252.76868	-972.76508	19.59487	1453.03662	-1015.65533	65.52135	1280.73022	-1002.69116	-173.00729	1359.09778	-910.08087	-67.72089	1491.3429	-1177.01245	-129.31145	1300.34973	-1252.27539	-162.65703	1163.81799	-1261.78772	-182.93924	1033.50159	-1279.745	-148.00517	898.13196	-1263.81055	-198.43523	911.41339	-1286.26428	-193.32191	844.89868	-1294.57202	-16.16764	1500.35791	-817.07312	-2.72785	1320.91882	-711.64252	46.9925	1182.13818	-683.3504	112.50366	1079.58643	-668.53784	192.02289	972.95099	-694.76593	156.12318	957.53271	-652.88708	212.5836	912.98065	-655.90112	48.77001	993.91516	-1123.44763	56.58803	975.3219	-865.44763	-159.47226	1028.6123	-1034.71021	-161.51089	1028.09912	-920.01367	51.7338	690.9903	-1195.52734	98.69987	498.13126	-1170.73755	92.3082	304.5097	-1170.60632	158.71645	87.91479	-1156.396	144.01649	56.93537	-1098.19836	311.08978	76.72191	-1197.1748	-40.26475	668.0448	-812.10126	-69.77046	459.38168	-856.36383	-137.06387	282.6196	-849.86499	-183.91545	93.96973	-890.66357	-226.58008	41.30932	-944.89264	-36.23843	36.01356	-879.31549	-64.29924	1797.06726	-979.40552	2845.10864	1033.71252	-3360.21851	NaN	NaN	NaN
115	1.14	62.19287	1745.69727	-1060.85547	51.61382	1727.0885	-918.05237	-55.3076	1653.01233	-1080.06604	-77.09172	1631.58801	-939.91925	-109.50818	1524.50391	-993.27521	-173.35176	1251.63818	-974.54504	28.75497	1451.74011	-1016.7616	74.46539	1279.38403	-1003.39465	-164.2948	1358.03198	-911.47992	-58.1863	1489.99915	-1178.31738	-121.21227	1299.15979	-1252.73718	-155.63708	1163.09705	-1261.99158	-177.77908	1032.90369	-1279.58899	-144.25481	897.17059	-1263.93823	-194.6328	911.0426	-1286.08667	-190.52512	844.47516	-1294.35999	-7.48593	1499.28564	-818.32727	7.33214	1320.2887	-712.62677	58.34111	1181.91602	-684.00171	125.32977	1080.13806	-669.51239	206.62372	974.87866	-696.11176	170.69499	958.64551	-654.18567	227.59215	914.91711	-657.40686	58.63048	992.69965	-1123.85913	64.95708	974.29053	-865.76019	-150.14619	1027.12122	-1036.48279	-153.23584	1026.77893	-921.76404	60.7287	689.87805	-1196.59448	109.3241	497.08691	-1171.7428	108.98491	303.29514	-1172.83289	182.31767	88.61275	-1159.48718	167.11499	56.65204	-1102.49365	335.89539	82.28316	-1196.83887	-34.50834	667.23615	-812.60089	-65.5939	458.74756	-856.92004	-134.95427	282.6362	-850.23553	-183.4536	94.50002	-890.87659	-226.36261	42.0043	-945.24481	-36.19309	35.95353	-879.18286	-55.75673	1795.77148	-981.21167	2845.17554	1033.72095	-3360.28833	NaN	NaN	NaN
